<?xml version="1.0" encoding="UTF-8" standalone="no"?>
<!-- Created with Inkscape (http://www.inkscape.org/) -->
<svg id="Слой_1" xmlns:rdf="http://www.w3.org/1999/02/22-rdf-syntax-ns#" xmlns="http://www.w3.org/2000/svg" xml:space="preserve" height="100%" width="100%" version="1.1" xmlns:cc="http://creativecommons.org/ns#" viewBox="0 0 553.69999 154.9" xmlns:dc="http://purl.org/dc/elements/1.1/"><metadata id="metadata73"><rdf:RDF><cc:Work rdf:about=""><dc:format>image/svg+xml</dc:format><dc:type rdf:resource="http://purl.org/dc/dcmitype/StillImage"/><dc:title/></cc:Work></rdf:RDF></metadata>
<style id="style3" type="text/css"/>
<g id="g5" transform="translate(-20.8 -347.4)">
	<g id="g7" fill="#010202">
		<path id="path9" d="m20.8 411.9c18 0 36 0 54-0.1 2.4 0 3.1 0.5 3.1 3-0.2 9.6 0 19.2-0.1 28.9 0 2.1 0.5 2.8 2.6 2.7 7.5-0.1 15-0.2 22.5 0 2.7 0.1 3.5-0.5 3.5-3.4-0.2-19.1-0.1-38.2-0.1-57.3 0-2 0.2-4 0.8-5.9 1.1-3.2 3.8-4.2 6.9-3.9 2.9 0.3 5.3 1.5 5.8 4.9 0.5 3.7-2 6.7-6.3 7.2-1.6 0.2-2.8 0-2.7 2.3 0.2 7 0.1 14 0 21 0 1.2-0.1 2.1 1.7 2.1 8.2 0.1 16.3-0.3 23.5-4.8 19.2-12 17-44.3-3.4-56-21-12-55.9 0.4-54.6 31.9 0.1 2.9-0.7 3.4-3.5 3.4-17.9-0.1-35.7-0.1-53.6-0.1v24.1z"/>
		<path id="path11" d="m228.5 411v-27.4c0-3.6-0.2-7.2-0.8-10.8-2.2-11.9-8.3-20.4-20.5-23.5-5.1-1.3-10.4-1.3-15.6-1.1-18.3 0.6-32.1 13.7-32.6 31.9-0.5 21.4-0.2 42.7-0.3 64.1 0 1.9 0.6 2.3 2.3 2.2 8-0.1 16-0.1 24 0 1.9 0 2.3-0.6 2.2-2.3-0.1-4.7 0-9.5 0-14.2 0-5.8 0-5.9 5.7-5.9 2.2 0 2.7-0.7 2.6-2.7-0.1-6.7-0.1-13.5 0-20.2 0-1.7-0.1-2.6-2.3-2.6-5.9 0-5.9-0.2-5.9-6v-6c0-2 0.1-4.2 0.8-6.1 1.1-2.8 3.7-3.8 6.6-3.5s4.7 1.9 4.9 5c0.1 2.1 0.5 4.2 0.5 6.3 0 18.5 0.1 37 0 55.5 0 2.3 0.5 3 2.8 2.9 7.6-0.2 15.2-0.2 22.9 0 2.3 0 2.9-0.5 2.9-2.8-0.3-11-0.2-21.9-0.2-32.8z"/>
		<path id="path13" d="m466.3 411v-27.4c0-3.6-0.2-7.2-0.8-10.8-2.2-11.9-8.3-20.4-20.5-23.5-5.1-1.3-10.4-1.3-15.6-1.1-18.3 0.6-32.1 13.7-32.6 31.9-0.6 21.4-0.2 42.7-0.3 64.1 0 1.8 0.6 2.3 2.3 2.3 8-0.1 16-0.1 24 0 1.8 0 2.3-0.6 2.3-2.3-0.1-5 0-10 0-15 0-5.2 0-5.3 5.3-5.1 2.5 0.1 3.1-0.7 3-3.1-0.2-6.6-0.1-13.2 0-19.9 0-1.7-0.1-2.6-2.3-2.7-6 0-6-0.2-6-6.3v-5.6c0-2 0.1-4.4 0.8-6.3 1-2.8 3.7-3.6 6.5-3.4 2.9 0.3 4.7 1.9 4.9 5 0.1 2.1 0.5 4.2 0.5 6.3 0 18.5 0.1 37 0 55.5 0 2.2 0.4 3 2.8 2.9 7.5-0.2 15-0.2 22.5 0 2.6 0.1 3.4-0.5 3.3-3.2-0.2-10.8-0.1-21.5-0.1-32.3z"/>
		<path id="path15" d="m288.9 349.1c-25.9-6.6-48.3 16.5-41.2 42.3 1.8 6.4 5.4 12 8.1 17.9 2.3 5 0.3 8.9-5 10.5-3.4 1-6.3-0.7-9.6-1.6v25.6c0 1.7 0.7 2.3 2.2 2.8 6.1 2.3 12.4 2.8 18.7 1.4 22.9-4.9 33.7-27.6 23.2-48.4-1.8-3.6-4.2-7-6-10.7-3.3-6.4 1.1-11.7 6.7-12.2 1.8-0.2 3.6 0.5 5.6 0.8 0-8.7-0.1-17.2 0.1-25.7-0.1-2.1-1.4-2.4-2.8-2.7z"/>
		<path id="path17" d="m553.3 418.7h-32.2c-7.8 0-10.3-2.4-10.5-10.2v-2.2c0-17.6-0.1-35.2 0.1-52.8 0-2.5-0.7-3.1-3.1-3-7.6 0.2-15.2 0.1-22.9 0-2.1 0-2.7 0.6-2.7 2.7 0.1 20.6-0.1 41.2 0.1 61.8 0.2 19.2 12.9 31.5 32.2 31.5h39v-27.8z"/>
		<path id="path19" d="m331.2 350.4c-7.6 0.2-15.2 0.1-22.9 0-2.1 0-2.7 0.6-2.7 2.7 0.1 30.2 0.1 60.5 0 90.7 0 2.1 0.6 2.7 2.7 2.7 7.6-0.1 15.2-0.2 22.9 0 2.5 0.1 3.1-0.6 3.1-3.1-0.1-14.9-0.1-29.7-0.1-44.6 0-15.1-0.1-30.2 0.1-45.4 0-2.4-0.6-3.1-3.1-3z"/>
		<path id="path21" d="m389.1 350.4c-9.3 0-18 0.1-26.7-0.1-2.4 0-3.5 0.9-4.6 2.8-7.2 12.9-14.6 25.7-21.9 38.5-0.7 1.2-1.1 2.3-0.4 3.8 6.9 16.3 13.6 32.7 20.3 49.1 0.5 1.2 0.8 1.9 2.3 1.9h30.5c-0.3-0.9-0.5-1.5-0.8-2-7.5-15.5-14.9-31.1-22.5-46.6-1.3-2.7-1.2-4.7 0.3-7.2 7.8-13.1 15.5-26.3 23.5-40.2z"/>
	</g>
	<g id="g23" fill="#010202">
		<path id="path25" d="m96.3 495.7h-1.5v-12.7h-16.5v12.7h-1.5v-25.6h1.5v11.5h16.4v-11.5h1.5v25.6z"/>
		<path id="path27" d="m115.7 497.6c-1.1 2.8-1.7 4.7-5 4.7-0.3 0-1.1 0-1.4-0.1v-1.3c0.6 0.1 0.8 0.1 1.2 0.1 1.7 0 2.6-0.7 3.3-2.4 0 0 0.9-2 1.3-3l-7.8-18.4h1.6l6.1 14.4c0.3 0.7 0.4 0.9 0.8 2.3 0.4-1.3 0.6-1.9 0.9-2.5l5.5-14.2h1.5l-8 20.4z"/>
		<path id="path29" d="m150.4 495.7h-1.4v-4.5c-0.9 3.2-3.6 5.1-7 5.1-5.1 0-8.2-3.7-8.2-9.7s3.2-9.9 8.2-9.9c3.4 0 5.9 1.8 6.9 4.8v-11.4h1.4v25.6zm-15.1-9.2c0 5.2 2.6 8.5 6.8 8.5s6.9-3.3 6.9-8.6c0-4.3-2-8.5-6.9-8.5-4.2 0-6.8 3.4-6.8 8.6z"/>
		<path id="path31" d="m179.4 495.5c-0.5 0.2-0.9 0.2-1.5 0.2-1.6 0-2.1-0.7-2.1-3.1v-0.9c-1.5 3-3.7 4.4-7.2 4.4-3.8 0-6.1-1.9-6.1-5.1 0-4.2 3.5-5.4 7-5.6 4.8-0.4 5.4-0.5 5.9-1.3 0.2-0.3 0.3-1.1 0.3-1.9 0-2.8-1.8-4.2-5.2-4.2s-5.3 1.7-5.6 4.9h-1.4c0.3-4 2.8-6.1 7.1-6.1 2.4 0 4.3 0.7 5.5 2 1.1 1.2 1 2.7 1 4.3v9.5c0 1.1 0 2 1.3 2 0.3 0 0.5 0 0.9-0.1v1zm-4.9-9.6c-2.7 0.8-5.6 0.4-8.2 1.6-1.4 0.6-2.2 1.8-2.2 3.4 0 2.5 1.8 4 4.8 4 4 0 6.9-2.7 6.9-6.4v-3.2c-0.5 0.3-0.6 0.4-1.3 0.6z"/>
		<path id="path33" d="m199 478.6h-0.5c-2.1 0-3.8 0.9-5.1 2.5-1.5 2-1.5 4.3-1.5 6.7v7.9h-1.4v-18.4h1.4v4.9c1.4-3.6 3.5-5 7.2-5v1.4z"/>
		<path id="path35" d="m223.9 495.7h-1.4v-3.9c-1.2 2.7-3.3 4.4-6.6 4.4-4.4 0-6.5-2.8-6.5-7.1v-11.9h1.4v11.5c0 3.3 1.2 6.1 5.4 6.1 4.4 0 6.3-3.8 6.3-7.7v-10h1.4v18.6z"/>
		<path id="path37" d="m238.8 495.7h-1.4v-25.6h1.4v25.6z"/>
		<path id="path39" d="m253.9 473.7h-1.4v-3.6h1.4v3.6zm0 22h-1.4v-18.4h1.4v18.4z"/>
		<path id="path41" d="m274.9 496.2c-5.6 0-8.4-4.4-8.4-9.7 0-6 3.4-9.8 8.6-9.8 4.2 0 7 2.3 7.5 6.2h-1.5c-0.4-3-2.7-5-6-5-4.4 0-7.2 3.3-7.2 8.5 0 5.1 2.8 8.5 6.9 8.5 3.5 0 6-2.2 6.4-5.8h1.4c-0.4 4.5-3.3 7.1-7.7 7.1z"/>
		<path id="path43" d="m310 490.5 4.2 5.1h-1.8l-3.1-3.8c-1.7 2.8-4.1 4.3-7.4 4.3-4.4 0-7.5-2.8-7.5-6.7s3.7-6.3 6.7-8c-1.5-1.7-3.5-4-3.5-6.4 0-2.9 2.3-4.9 5.5-4.9 3.1 0 5.3 2 5.3 4.8 0 3.3-2.9 5.2-5.4 6.8l6.1 7.6c0.5-1.5 0.8-2.8 0.9-4.3h1.4c-0.1 2-0.5 3.8-1.4 5.5zm-14.2-1c0 3.1 2.7 5.5 6.1 5.5 2.7 0 5.1-1.5 6.5-4.2l-6.7-8.2c-2.6 1.4-5.9 3.5-5.9 6.9zm11.1-14.3c0-2.1-1.7-3.7-4-3.7-2.4 0-4.1 1.5-4.1 3.7 0 1.9 2.1 4.3 3.3 5.8 2.1-1.3 4.8-3.2 4.8-5.8z"/>
		<path id="path45" d="m326.7 481.6c1.2-3.2 3.5-4.9 6.9-4.9 5 0 8.2 3.8 8.2 9.8 0 5.9-3.3 9.7-8.2 9.7-3.4 0-5.9-1.7-6.8-4.8v10.8h-1.4v-25.1h1.4v4.5zm0 5c0 4.3 2 8.5 6.8 8.5 4.1 0 6.8-3.4 6.8-8.5 0-5.3-2.6-8.6-6.8-8.6-4.3 0-6.8 3.2-6.8 8.6z"/>
		<path id="path47" d="m355.6 481.3c1.3-2.9 3.4-4.6 6.8-4.6 4.1 0 6.5 2.6 6.5 6.8v12.1h-1.4v-11.4c0-3.5-1.2-6.3-5.4-6.3-2.4 0-4.3 1.1-5.4 3-0.7 1.3-1 2.7-1 5.1v9.5h-1.4v-18.4h1.4v4.2z"/>
		<path id="path49" d="m389.3 496.3c-5.1 0-8.4-3.8-8.4-9.6 0-5.9 3.4-9.9 8.4-9.9 5.5 0 8.1 4.5 8.1 9.5v0.5h-14.9c0 4.2 2 8.3 6.9 8.3 3.4 0 5.7-2 6.4-5.6h1.4c-0.7 3.9-3.5 6.8-7.9 6.8zm0-18.3c-4.5 0-6.5 3.5-6.9 7.4h13.4c0.1-3.7-2-7.4-6.5-7.4z"/>
		<path id="path51" d="m423.9 495.7h-1.4v-3.9c-1.2 2.7-3.3 4.4-6.6 4.4-4.4 0-6.5-2.8-6.5-7.1v-11.9h1.4v11.5c0 3.3 1.2 6.1 5.4 6.1 4.4 0 6.3-3.8 6.3-7.7v-10h1.4v18.6z"/>
		<path id="path53" d="m438.5 481c0.9-2.4 2.9-4.2 6-4.2 2.8 0 4.6 1.4 5.4 4 1.2-2.4 3-4 6-4 3.8 0 5.8 2.5 5.8 5.9v13h-1.4v-12.4c0-3-1.3-5.1-4.7-5.1-1.5 0-2.8 0.5-3.8 1.5-1.3 1.3-1.7 3-1.7 4.8v11.3h-1.4v-12.2c0-1.5-0.1-2.4-0.5-3.2-0.6-1.4-2.1-2.2-3.9-2.2-3.5 0-5.6 2.7-5.6 7.1v10.5h-1.4v-18.4h1.4v3.6z"/>
		<path id="path55" d="m490.6 495.5c-0.5 0.2-0.9 0.2-1.5 0.2-1.6 0-2.1-0.7-2.1-3.1v-0.9c-1.5 3-3.7 4.4-7.2 4.4-3.8 0-6.1-1.9-6.1-5.1 0-4.2 3.5-5.4 7-5.6 4.8-0.4 5.4-0.5 5.9-1.3 0.2-0.3 0.3-1.1 0.3-1.9 0-2.8-1.8-4.2-5.2-4.2s-5.3 1.7-5.6 4.9h-1.4c0.3-4 2.8-6.1 7.1-6.1 2.4 0 4.3 0.7 5.5 2 1.1 1.2 1 2.7 1 4.3v9.5c0 1.1 0 2 1.3 2 0.3 0 0.5 0 0.9-0.1v1zm-4.9-9.6c-2.7 0.8-5.6 0.4-8.2 1.6-1.4 0.6-2.2 1.8-2.2 3.4 0 2.5 1.8 4 4.8 4 4 0 6.9-2.7 6.9-6.4v-3.2c-0.5 0.3-0.7 0.4-1.3 0.6z"/>
		<path id="path57" d="m508.4 478.5h-4v12.5c0 1.9-0.1 3.5 2.4 3.5 0.4 0 0.8 0 1.5-0.1v1.3c-0.8 0.1-1.1 0.1-1.7 0.1-3.9 0-3.7-2.4-3.7-5.4v-11.9h-3.4v-1.3h3.4v-5.8h1.4v5.8h4v1.3z"/>
		<path id="path59" d="m521.7 473.7h-1.4v-3.6h1.4v3.6zm0 22h-1.4v-18.4h1.4v18.4z"/>
		<path id="path61" d="m542.7 496.2c-5.6 0-8.4-4.4-8.4-9.7 0-6 3.4-9.8 8.6-9.8 4.2 0 7 2.3 7.5 6.2h-1.5c-0.4-3-2.7-5-6-5-4.4 0-7.2 3.3-7.2 8.5 0 5.1 2.8 8.5 6.9 8.5 3.5 0 6-2.2 6.4-5.8h1.4c-0.4 4.5-3.3 7.1-7.7 7.1z"/>
	</g>
	<g id="g63">
		<g id="g65">
			<path id="path67" fill="#010202" d="m574.5 358.4c0 6.1-4.9 11-10.9 11-6.1 0-11-4.9-11-11s4.9-11 10.9-11c6.1 0 11 4.9 11 11zm-20.2 0c0 5.1 4.2 9.3 9.3 9.3 5 0 9.2-4.2 9.2-9.3 0-5.2-4.2-9.3-9.3-9.3-5 0-9.2 4.2-9.2 9.3zm9.1-5.7c2.2 0 5.2 0.4 5.2 3.3 0 1.3-0.7 2.2-2.1 2.8 1.4 0.6 1.9 1.6 1.9 3.6 0 0.5 0.1 1 0.4 1.6h-2.2c-0.2-0.5-0.3-1-0.3-1.3 0-2.8-0.6-3.1-3.4-3.1h-1.6v4.4h-2v-11.3h4.1zm-0.1 5.2c2.2 0 3.1-0.5 3.1-1.8 0-1.7-1.9-1.7-3.2-1.7h-2v3.5h2.1z"/>
		</g>
	</g>
</g>
</svg>
