<?xml version="1.0" encoding="UTF-8" standalone="no"?>
<!-- Created with Inkscape (http://www.inkscape.org/) -->
<svg id="Слой_1" xmlns:rdf="http://www.w3.org/1999/02/22-rdf-syntax-ns#" xmlns="http://www.w3.org/2000/svg" xml:space="preserve" height="100%" width="100%" version="1.1" xmlns:cc="http://creativecommons.org/ns#" viewBox="0 0 209.57909 77.999999" xmlns:dc="http://purl.org/dc/elements/1.1/"><metadata id="metadata63"><rdf:RDF><cc:Work rdf:about=""><dc:format>image/svg+xml</dc:format><dc:type rdf:resource="http://purl.org/dc/dcmitype/StillImage"/><dc:title/></cc:Work></rdf:RDF></metadata>
<style id="style3" type="text/css"/>
<g id="g5" transform="matrix(.36723 0 0 .36723 .036723 -1.5694e-7)">
	<g id="g7">
		<path id="path9" fill="none" d="m489.8 94.4v-2.2c0-17.6-0.1-35.2 0.1-52.8 0-2.5-0.7-3.1-3.1-3-7.6 0.2-15.2 0.1-22.9 0-2.1 0-2.7 0.6-2.7 2.7 0.1 20.6-0.1 41.2 0.1 61.8 0.2 19.2 12.9 31.5 32.2 31.5h37.7v-27.8h-31c-7.7-0.1-10.1-2.5-10.4-10.2z"/>
		<path id="path11" fill="none" d="m445.6 96.9v-27.4c0-3.6-0.2-7.2-0.8-10.8-2.2-11.9-8.3-20.4-20.5-23.5-5.1-1.3-10.4-1.3-15.6-1.1-18.3 0.7-32.2 13.7-32.7 31.9-0.6 21.4-0.2 42.7-0.3 64.1 0 1.8 0.6 2.3 2.3 2.3 8-0.1 16-0.1 24 0 1.8 0 2.3-0.6 2.3-2.3-0.1-5 0-10 0-15 0-5.2 0-5.3 5.3-5.1 2.5 0.1 3.1-0.7 3-3.1-0.2-6.6-0.1-13.2 0-19.9 0-1.7-0.1-2.6-2.3-2.7-6 0-6-0.2-6-6.3v-5.6c0-2 0.1-4.4 0.8-6.3 1-2.8 3.7-3.6 6.5-3.4 2.9 0.3 4.7 1.9 4.9 5 0.1 2.1 0.5 4.2 0.5 6.3 0 18.5 0.1 37 0 55.5 0 2.2 0.4 3 2.8 2.9 7.5-0.2 15-0.2 22.5 0 2.6 0.1 3.4-0.5 3.3-3.2-0.1-10.8 0-21.5 0-32.3z"/>
		<path id="path13" fill="#010202" d="m542.3 43.2h-2v3.5h2c2.2 0 3.1-0.5 3.1-1.8 0.1-1.7-1.8-1.7-3.1-1.7z"/>
		<path id="path15" fill="#010202" d="m0 0s0.1 58.4 0.1 73.8c17.9 0 35.7-0.1 53.6 0.1 2.7 0 3.6-0.6 3.5-3.4-1.4-31.5 33.6-44 54.6-32 20.4 11.7 22.7 44 3.4 56-7.2 4.5-15.3 4.9-23.5 4.8-1.7 0-1.7-0.9-1.7-2.1 0-7 0.1-14 0-21-0.1-2.3 1.1-2.2 2.7-2.3 4.3-0.4 6.8-3.4 6.3-7.2-0.5-3.4-2.9-4.6-5.8-4.9-3-0.3-5.7 0.6-6.9 3.9-0.7 1.9-0.8 3.9-0.8 5.9 0 19.1-0.1 38.2 0.1 57.3 0 2.9-0.8 3.5-3.5 3.4-7.5-0.2-15-0.2-22.5 0-2.2 0-2.7-0.7-2.6-2.7 0.1-9.6 0-19.2 0.1-28.9 0-2.5-0.7-3-3.1-3-18 0.1-36 0.1-54 0.1 0 13.4-0.1 70.8-0.1 70.8h570.7v-168.6h-570.6zm205 132.4c-7.6-0.1-15.2-0.2-22.9 0-2.4 0.1-2.9-0.7-2.8-2.9 0.1-18.5 0.1-37 0-55.5 0-2.1-0.4-4.2-0.5-6.3-0.2-3.1-2-4.8-4.9-5-2.8-0.3-5.5 0.7-6.6 3.5-0.7 1.9-0.8 4.1-0.8 6.1v6c0 5.8 0 5.9 5.9 6 2.2 0 2.4 0.9 2.3 2.6-0.1 6.7-0.1 13.5 0 20.2 0 2-0.4 2.8-2.6 2.7-5.7 0-5.7 0.1-5.7 5.9 0 4.7-0.1 9.5 0 14.2 0 1.7-0.4 2.4-2.2 2.3-8-0.1-16-0.1-24 0-1.7 0-2.4-0.4-2.3-2.2 0.1-21.4-0.3-42.7 0.3-64.1 0.5-18.2 14.3-31.2 32.6-31.9 5.2-0.2 10.5-0.2 15.6 1.1 12.2 3.1 18.3 11.6 20.5 23.5 0.7 3.6 0.9 7.2 0.8 10.8v27.4c0 10.9-0.1 21.7 0.1 32.6 0.1 2.5-0.6 3-2.8 3zm65.8-68.9c-2-0.3-3.8-0.9-5.6-0.8-5.6 0.5-10 5.8-6.7 12.2 1.9 3.6 4.2 7 6 10.7 10.5 20.9-0.3 43.5-23.2 48.4-6.3 1.4-12.6 0.9-18.7-1.4-1.5-0.6-2.2-1.1-2.2-2.8 0.1-8.5 0-17 0-25.6 3.3 0.9 6.1 2.6 9.6 1.6 5.3-1.6 7.3-5.5 5-10.5-2.7-6-6.3-11.5-8.1-17.9-7.1-25.8 15.4-48.9 41.2-42.3 1.4 0.4 2.7 0.6 2.7 2.8-0.1 8.3 0 16.8 0 25.6zm42.8 21.2c0 14.9-0.1 29.7 0.1 44.6 0 2.4-0.6 3.1-3.1 3.1-7.6-0.2-15.2-0.1-22.9 0-2.1 0-2.7-0.6-2.7-2.7 0.1-30.2 0.1-60.5 0-90.7 0-2.1 0.5-2.7 2.7-2.7 7.6 0.1 15.2 0.2 22.9 0 2.5-0.1 3.1 0.6 3.1 3.1-0.2 15-0.1 30.2-0.1 45.3zm31.2-1c7.6 15.5 15 31 22.5 46.6 0.3 0.5 0.4 1.1 0.8 2h-30.5c-1.4 0-1.8-0.7-2.3-1.9-6.7-16.4-13.5-32.8-20.3-49.1-0.7-1.6-0.2-2.6 0.4-3.8 7.3-12.8 14.7-25.6 21.9-38.5 1.1-1.9 2.2-2.8 4.6-2.8 8.7 0.2 17.4 0.1 26.7 0.1-8.1 13.9-15.7 27.1-23.4 40.2-1.7 2.5-1.8 4.5-0.4 7.2zm97.5 48.7c-7.5-0.2-15-0.2-22.5 0-2.4 0.1-2.8-0.7-2.8-2.9 0.1-18.5 0.1-37 0-55.5 0-2.1-0.4-4.2-0.5-6.3-0.2-3.1-2.1-4.8-4.9-5-2.8-0.3-5.5 0.5-6.5 3.4-0.7 1.9-0.8 4.3-0.8 6.3v5.6c0 6.2 0 6.3 6 6.3 2.2 0 2.3 1 2.3 2.7-0.1 6.6-0.1 13.2 0 19.9 0.1 2.4-0.5 3.2-3 3.1-5.3-0.2-5.3 0-5.3 5.1 0 5-0.1 10 0 15 0 1.8-0.4 2.4-2.3 2.3-8-0.1-16-0.1-24 0-1.8 0-2.3-0.4-2.3-2.3 0.1-21.4-0.3-42.7 0.3-64.1 0.5-18.2 14.3-31.2 32.6-31.9 5.2-0.2 10.5-0.2 15.6 1.1 12.2 3.1 18.3 11.6 20.5 23.5 0.7 3.6 0.9 7.2 0.8 10.8v27.4c0 10.7-0.1 21.5 0.1 32.2 0.1 2.8-0.7 3.3-3.3 3.3zm89-0.1h-37.7c-19.3 0-32-12.3-32.2-31.5-0.2-20.6 0-41.2-0.1-61.8 0-2.1 0.5-2.7 2.7-2.7 7.6 0.1 15.2 0.1 22.9 0 2.4 0 3.1 0.6 3.1 3-0.1 17.6-0.1 35.2-0.1 52.8v2.2c0.2 7.8 2.7 10.2 10.5 10.2h31v27.8zm11.3-74c-6.1 0-11-4.9-11-11s4.9-11 10.9-11c6.1 0 11 4.9 11 11 0 6-4.9 11-10.9 11z"/>
		<path id="path17" fill="#010202" d="m542.5 38c-5 0-9.2 4.1-9.2 9.3 0 5.1 4.2 9.3 9.3 9.3 5 0 9.2-4.2 9.2-9.3 0-5.2-4.2-9.3-9.3-9.3zm3.1 14.8c-0.2-0.5-0.3-1-0.3-1.3 0-2.8-0.6-3.1-3.4-3.1h-1.6v4.4h-2v-11.3h4.1c2.2 0 5.2 0.4 5.2 3.3 0 1.3-0.7 2.2-2.1 2.8 1.4 0.6 1.9 1.6 1.9 3.6 0 0.5 0.1 1 0.4 1.6h-2.2z"/>
	</g>
	<g id="g19" fill="#010202">
		<path id="path21" d="m19.2 204.5v-12.7h-16.9v12.7h-2.3v-26.7h2.3v11.9h16.9v-11.9h2.3v26.7h-2.3z"/>
		<path id="path23" d="m36.4 210.2c0.4 0.2 1.2 0.3 1.7 0.3 1.3 0 2.2-0.5 2.9-2.4l1.5-3.4-8.2-19.5h2.3l7 16.9 7-16.9h2.4l-10 23.6c-1 2.4-2.7 3.6-5 3.6-0.6 0-1.5-0.1-2-0.3l0.4-1.9z"/>
		<path id="path25" d="m80.2 204.5v-3.1c-1.4 2-3.8 3.6-6.7 3.6-5.1 0-8.6-3.9-8.6-10.1 0-6.1 3.5-10.2 8.6-10.2 2.8 0 5.2 1.4 6.7 3.6v-10.5h2.1v26.7h-2.1zm0-4.8v-9.6c-1.1-1.9-3.6-3.5-6.4-3.5-4.3 0-6.8 3.6-6.8 8.3s2.5 8.2 6.8 8.2c2.7 0 5.2-1.6 6.4-3.4z"/>
		<path id="path27" d="m98.1 204.5v-19.3h2.1v3.3c1.6-2.2 3.8-3.7 6.5-3.7v2.3c-0.4-0.1-0.6-0.1-1-0.1-2 0-4.6 1.8-5.5 3.4v14.1h-2.1z"/>
		<path id="path29" d="m132.4 204.5v-2.3c-1.7 1.9-3.9 2.8-6.6 2.8-3.3 0-6.8-2.3-6.8-6.4 0-4.2 3.4-6.4 6.8-6.4 2.7 0 4.9 0.9 6.6 2.8v-4c0-2.9-2.3-4.4-5.2-4.4-2.4 0-4.3 0.8-6 2.8l-1.2-1.4c2-2.2 4.2-3.2 7.4-3.2 3.9 0 7 1.9 7 6.2v13.6h-2zm0-3.8v-4.2c-1.4-1.8-3.5-2.7-5.8-2.7-3.2 0-5.3 2-5.3 4.8 0 2.7 2.1 4.8 5.3 4.8 2.2 0 4.4-0.9 5.8-2.7z"/>
		<path id="path31" d="m163.3 204.5v-2.8c-1.6 1.8-4.2 3.3-7 3.3-4 0-6.1-1.8-6.1-6.2v-13.6h2.1v13.1c0 3.8 1.9 4.8 4.7 4.8 2.5 0 5-1.5 6.3-3.2v-14.7h2.1v19.3h-2.1z"/>
		<path id="path33" d="m181.2 204.5v-26.7h2.1v26.7h-2.1z"/>
		<path id="path35" d="m198.5 180.6c0-0.9 0.8-1.6 1.6-1.6 0.9 0 1.6 0.7 1.6 1.6s-0.7 1.6-1.6 1.6-1.6-0.8-1.6-1.6zm0.5 23.9v-19.3h2.1v19.3h-2.1z"/>
		<path id="path37" d="m215.8 194.8c0-5.6 3.7-10.1 9.4-10.1 3.4 0 5.3 1.3 6.8 3.3l-1.4 1.3c-1.4-1.9-3.2-2.7-5.3-2.7-4.5 0-7.3 3.6-7.3 8.2s2.8 8.3 7.3 8.3c2.1 0 3.9-0.8 5.3-2.7l1.4 1.3c-1.6 2-3.5 3.3-6.8 3.3-5.7 0-9.4-4.5-9.4-10.2z"/>
		<path id="path39" d="m283.4 204.5c-0.9-0.8-2.2-2-3.4-3.2-1.9 2.2-4.4 3.7-7.8 3.7-4.4 0-8-2.5-8-7.3 0-4.2 2.8-6.4 6-8.1-1.3-2.1-2.2-4.2-2.2-6.1 0-3.5 2.8-6.1 6.4-6.1 3.3 0 5.6 1.8 5.6 5 0 4-3.5 5.8-6.9 7.6 1.2 1.6 2.5 3.1 3.4 4.2 1.2 1.4 2.4 2.7 3.6 3.9 1.6-2.4 2.6-5 3-6.5l1.9 0.8c-0.8 2.1-1.9 4.8-3.5 7.1 1.6 1.6 3.2 3.1 5.2 4.9h-3.3zm-4.8-4.6c-1.6-1.7-3.2-3.3-4-4.3-1.2-1.4-2.4-2.9-3.6-4.5-2.6 1.5-4.6 3.3-4.6 6.4 0 3.6 2.8 5.6 5.9 5.6 2.6 0.1 4.7-1.3 6.3-3.2zm-6.6-11.3c3-1.6 5.8-3.1 5.8-6.1 0-2.2-1.5-3.4-3.5-3.4-2.3 0-4.2 1.8-4.2 4.4 0 1.6 0.8 3.4 1.9 5.1z"/>
		<path id="path41" d="m320.3 204.5v-26.7h10c5.1 0 8 3.6 8 7.8s-3 7.8-8 7.8h-7.7v11.1h-2.3zm15.7-18.9c0-3.4-2.4-5.7-5.9-5.7h-7.5v11.4h7.5c3.5 0.1 5.9-2.3 5.9-5.7z"/>
		<path id="path43" d="m365.4 204.5v-13.1c0-3.7-1.9-4.8-4.7-4.8-2.5 0-5 1.6-6.3 3.3v14.6h-2.1v-19.3h2.1v2.9c1.4-1.7 4.2-3.4 7-3.4 3.9 0 6.1 1.9 6.1 6.3v13.5h-2.1z"/>
		<path id="path45" d="m382.2 194.8c0-5.6 4-10.1 9.3-10.1 5.9 0 9.1 4.7 9.1 10.2v0.6h-16.2c0.2 4.2 3 7.7 7.6 7.7 2.4 0 4.7-0.9 6.3-2.7l1.1 1.4c-1.9 2-4.4 3.1-7.6 3.1-5.6 0-9.6-4.2-9.6-10.2zm9.3-8.3c-4.6 0-6.8 4-7 7.4h14c0-3.3-2.2-7.4-7-7.4z"/>
		<path id="path47" d="m428.4 204.5v-2.8c-1.6 1.8-4.2 3.3-7 3.3-4 0-6.1-1.8-6.1-6.2v-13.6h2.1v13.1c0 3.8 1.9 4.8 4.7 4.8 2.5 0 5-1.5 6.3-3.2v-14.7h2.1v19.3h-2.1z"/>
		<path id="path49" d="m469.2 204.5v-13.5c0-2.7-1.2-4.4-3.9-4.4-2.1 0-4.4 1.5-5.5 3.3v14.6h-2.1v-13.5c0-2.7-1.1-4.4-3.9-4.4-2 0-4.4 1.6-5.5 3.3v14.6h-2.1v-19.3h2.1v2.9c0.8-1.2 3.4-3.4 6.2-3.4 3 0 4.6 1.8 5.1 3.6 1.1-1.8 3.7-3.6 6.4-3.6 3.6 0 5.3 2 5.3 5.9v13.9h-2.1z"/>
		<path id="path51" d="m499.4 204.5v-2.3c-1.7 1.9-3.9 2.8-6.6 2.8-3.3 0-6.8-2.3-6.8-6.4 0-4.2 3.4-6.4 6.8-6.4 2.7 0 4.9 0.9 6.6 2.8v-4c0-2.9-2.3-4.4-5.2-4.4-2.4 0-4.3 0.8-6 2.8l-1.2-1.4c2-2.2 4.2-3.2 7.4-3.2 3.9 0 7 1.9 7 6.2v13.6h-2zm0-3.8v-4.2c-1.4-1.8-3.5-2.7-5.8-2.7-3.2 0-5.3 2-5.3 4.8 0 2.7 2.1 4.8 5.3 4.8 2.3 0 4.4-0.9 5.8-2.7z"/>
		<path id="path53" d="m517.7 200.8v-13.8h-3.2v-1.8h3.2v-5.3h2.1v5.3h3.9v1.8h-3.9v13.4c0 1.6 0.6 2.6 2 2.6 0.9 0 1.7-0.4 2.2-0.9l0.8 1.6c-0.8 0.7-1.7 1.2-3.3 1.2-2.6 0.1-3.8-1.5-3.8-4.1z"/>
		<path id="path55" d="m537 180.6c0-0.9 0.8-1.6 1.6-1.6 0.9 0 1.6 0.7 1.6 1.6s-0.7 1.6-1.6 1.6c-0.8 0-1.6-0.8-1.6-1.6zm0.6 23.9v-19.3h2.1v19.3h-2.1z"/>
		<path id="path57" d="m554.4 194.8c0-5.6 3.7-10.1 9.4-10.1 3.4 0 5.3 1.3 6.8 3.3l-1.4 1.3c-1.4-1.9-3.2-2.7-5.3-2.7-4.5 0-7.3 3.6-7.3 8.2s2.8 8.3 7.3 8.3c2.1 0 3.9-0.8 5.3-2.7l1.4 1.3c-1.6 2-3.5 3.3-6.8 3.3-5.7 0-9.4-4.5-9.4-10.2z"/>
	</g>
</g>
</svg>
